<?xml version="1.0" standalone="no"?>
<!DOCTYPE svg PUBLIC "-//W3C//DTD SVG 20010904//EN"
 "http://www.w3.org/TR/2001/REC-SVG-20010904/DTD/svg10.dtd">
<svg version="1.0" xmlns="http://www.w3.org/2000/svg"
 width="225.000000pt" height="263.000000pt" viewBox="0 0 225.000000 263.000000"
 preserveAspectRatio="xMidYMid meet">

<g transform="translate(0.000000,263.000000) scale(0.100000,-0.100000)"
fill="#b100ff" stroke="none">
<path d="M953 2495 c-241 -141 -767 -477 -790 -507 -14 -16 -32 -171 -63 -553
-12 -137 -27 -310 -35 -383 l-15 -134 95 -101 c144 -153 348 -330 580 -502
137 -102 325 -228 331 -222 3 2 -31 177 -74 388 -44 211 -87 427 -97 481 -9
53 -22 103 -28 111 -29 35 -387 292 -387 278 0 -5 25 -74 56 -153 108 -277
265 -701 262 -710 -4 -10 -322 263 -461 394 l-88 83 40 445 c23 245 43 454 46
466 3 14 91 76 272 191 389 248 511 323 525 323 6 0 45 -21 87 -47 60 -37 702
-443 707 -447 1 -1 21 -210 44 -466 l42 -465 -101 -97 c-106 -101 -443 -389
-450 -383 -4 4 117 336 233 640 46 121 83 222 81 223 -5 5 -111 -67 -257 -176
-140 -104 -128 -85 -158 -247 -7 -33 -47 -233 -91 -444 -44 -211 -78 -385 -77
-387 6 -5 274 179 398 274 201 153 356 288 488 422 117 119 122 127 117 160
-2 19 -18 195 -35 390 -56 641 -54 628 -80 655 -49 53 -845 551 -933 584 -21
8 -47 -4 -184 -84z"/>
<path d="M486 1589 c19 -46 41 -98 49 -115 14 -33 3 -28 328 -164 116 -49 148
-66 152 -83 9 -39 95 -703 95 -730 0 -15 4 -27 8 -27 4 0 13 47 20 104 34 288
93 671 105 678 6 4 107 46 222 94 116 48 215 92 222 98 11 11 105 218 100 222
-1 1 -29 -9 -62 -21 -33 -13 -181 -72 -329 -130 -226 -88 -274 -104 -295 -96
-29 10 -619 240 -639 248 -7 3 4 -32 24 -78z"/>
</g>
</svg>
